<?xml version="1.0" encoding="UTF-8"?>
<svg width="40px" height="40px" viewBox="0 0 40 40" version="1.1" xmlns="http://www.w3.org/2000/svg" xmlns:xlink="http://www.w3.org/1999/xlink">
    <!-- Generator: Sketch 49.3 (51167) - http://www.bohemiancoding.com/sketch -->
    <title>icon/Alipay</title>
    <desc>Created with Sketch.</desc>
    <defs></defs>
    <g id="icon/Alipay" stroke="none" stroke-width="1" fill="none" fill-rule="evenodd">
        <path d="M9.03715962,2 L30.9628404,2 C34.8334587,2 38,5.1665413 38,9.03715962 L38,26.5939522 C35.3997292,25.6961035 29.7978035,23.7686174 25.8892734,22.4772078 C28.0773281,18.67459 29.0046638,15.1313374 29.0046638,15.1313374 L22.0637882,15.1313374 L22.0637882,12.6231383 L30.57289,12.6231383 L30.57289,11.4942079 L22.0637882,11.4942079 L22.0637882,7.35459606 L18.2172409,7.35459606 L18.2172409,11.4942079 L9.70934256,11.4942079 L9.70934256,12.6231383 L18.2172409,12.6231383 L18.2172409,15.1313374 L10.8172108,15.1313374 L10.8172108,16.4696856 L24.6147134,16.4696856 C24.3553483,18.7474048 23.6073417,20.0466376 22.5873326,21.5444561 C15.6181736,19.6524748 10.2485332,18.4892433 6.71972318,21.3615165 C3.12351437,24.2885512 5.04678802,33.4445615 15.1650369,31.3961185 C18.9195126,30.6360764 21.7929893,28.2000903 23.9220701,25.4373402 L37.9795396,31.5014292 C37.7021213,35.1229126 34.6523244,38 30.9628404,38 L9.03715962,38 C5.1665413,38 2,34.8334587 2,30.9628404 L2,9.03715962 C2,5.1665413 5.1665413,2 9.03715962,2 Z M20.8349631,24.0291861 C20.8349631,24.0291861 16.3661802,30.5915451 10.0264781,29.172559 C8.97818565,28.9384685 8.18504589,28.6074921 7.64585527,28.1567624 C5.33142771,26.219648 6.3063036,23.234241 8.48232285,21.9566722 C10.4627652,20.7946442 14.2419136,20.4438092 20.8349631,24.0291861 Z" id="Combined-Shape" fill="#05AAEE"></path>
    </g>
</svg>