<?xml version="1.0" encoding="UTF-8"?>
<svg width="24px" height="24px" viewBox="0 0 24 24" version="1.1" xmlns="http://www.w3.org/2000/svg" xmlns:xlink="http://www.w3.org/1999/xlink">
    <!-- Generator: Sketch 50.2 (55047) - http://www.bohemiancoding.com/sketch -->
    <title>安卓</title>
    <desc>Created with Sketch.</desc>
    <defs></defs>
    <g id="h5" stroke="none" stroke-width="1" fill="none" fill-rule="evenodd">
        <g id="APP下载" transform="translate(-113.000000, -373.000000)" fill="#1E96FF" fill-rule="nonzero">
            <g id="Group" transform="translate(68.000000, 363.000000)">
                <g id="安卓" transform="translate(45.000000, 10.000000)">
                    <path d="M22.4464129,17.010493 L22.2357031,17.010493 C21.3811579,17.010493 20.6904981,16.3425937 20.6904981,15.5194372 L20.6904981,9.48197958 C20.6904981,8.65589367 21.3811579,7.98799441 22.2357031,7.98799441 L22.4464129,7.98799441 C23.3009581,7.98799441 23.991618,8.65589365 23.991618,9.48197958 L23.991618,15.5194372 C23.991618,16.3425937 23.2980316,17.010493 22.4464129,17.010493 Z M18.1561277,19.2514707 L16.4704494,19.2514707 L16.4704494,22.5089442 C16.4704494,23.3321007 15.7768631,24 14.9223179,24 L14.7116081,24 C13.8570629,24 13.166403,23.3321008 13.166403,22.5089442 L13.166403,19.2514707 L10.5647226,19.2514707 L10.5647226,22.5089442 C10.5647226,23.3321007 9.87113622,24 9.016591,24 L8.80588121,24 C7.95133599,24 7.25774964,23.3321008 7.25774964,22.5089442 L7.25774964,19.2514707 L5.78278117,19.2514707 C4.92823596,19.2514707 4.23757613,18.5835715 4.23757613,17.7604149 L4.23757613,8.6002354 C4.23757613,8.43911934 4.24342918,8.2809327 4.25513528,8.12567541 L19.6837736,8.12567541 C19.6954797,8.2809327 19.7013327,8.44204873 19.7013327,8.6002354 L19.7013327,17.7574856 C19.7013327,18.5835715 19.0106729,19.2514707 18.1561277,19.2514707 Z M8.15033966,2.35186219 L6.85681573,0.187048406 C6.82755049,0.140178281 6.84510964,0.0757318594 6.89486056,0.0464380312 L6.95631758,0.0142148203 C7.0060685,-0.0150790078 7.07045205,0.00249728906 7.0997173,0.0522967969 L8.4020208,2.23175749 C9.35606786,1.79235009 10.4213228,1.54628196 11.5480349,1.54628196 L12.390874,1.54628196 C13.4736881,1.54628196 14.5008983,1.7747738 15.4227536,2.18195801 L16.6987184,0.0522967969 C16.7279836,0.00542667187 16.7923672,-0.012149625 16.8421181,0.0142148203 L16.9035751,0.0464380312 C16.953326,0.0757318594 16.9708852,0.137248898 16.9416199,0.187048406 L15.6773613,2.2991333 C17.723002,3.29512341 19.2155297,5.19043397 19.6018309,7.44605862 L4.33415143,7.44605862 C4.71167312,5.23144533 6.16322939,3.36249921 8.15033966,2.35186219 Z M15.4490923,5.14063448 C15.8968506,5.14063448 16.2597397,4.86820191 16.2597397,4.53132288 C16.2597397,4.19444388 15.8968506,3.92201128 15.4490923,3.92201128 C15.0042606,3.92201128 14.6413715,4.19444386 14.6413715,4.53132288 C14.6413715,4.86820188 15.001334,5.14063448 15.4490923,5.14063448 Z M8.27910676,5.20801027 C8.72393851,5.20801027 9.08682757,4.9326483 9.08682757,4.59576928 C9.08682757,4.25889028 8.72393851,3.98645768 8.27910676,3.98645768 C7.83134847,3.98645768 7.47138594,4.25889026 7.47138594,4.59576928 C7.46845941,4.93557769 7.83134847,5.20801027 8.27910676,5.20801027 Z M1.7734423,17.010493 L1.56273251,17.010493 C0.711113842,17.010493 0.0175274693,16.3425937 0.0175274693,15.5194372 L0.0175274693,9.48197958 C0.0175274693,8.65589367 0.711113819,7.98799441 1.56273251,7.98799441 L1.7734423,7.98799441 C2.62798752,7.98799441 3.32157387,8.65589365 3.32157387,9.48197958 L3.32157389,15.5194372 C3.32157389,16.3425937 2.63091404,17.010493 1.7734423,17.010493 Z" id="Shape"></path>
                </g>
            </g>
        </g>
    </g>
</svg>