<?xml version="1.0" encoding="UTF-8"?>
<svg width="24px" height="24px" viewBox="0 0 24 24" version="1.1" xmlns="http://www.w3.org/2000/svg" xmlns:xlink="http://www.w3.org/1999/xlink">
    <!-- Generator: Sketch 50.2 (55047) - http://www.bohemiancoding.com/sketch -->
    <title>Group Copy 2</title>
    <desc>Created with Sketch.</desc>
    <defs></defs>
    <g id="app" stroke="none" stroke-width="1" fill="none" fill-rule="evenodd">
        <g id="我的" transform="translate(-14.000000, -258.000000)" fill="#F5A623" fill-rule="nonzero">
            <g id="Group-Copy-2" transform="translate(0.000000, 248.000000)">
                <g id="Group-2" transform="translate(14.000000, 10.000000)">
                    <path d="M5.41283578,23 C7.14407252,23 7.11709451,19.5376452 7.11709451,19.5376452 C7.11709451,19.5376452 10.4983785,16.1836159 10.4983785,19.5376452 C10.4983553,22.891837 5.41283578,23 5.41283578,23 Z M2,11.1569714 C2,5.54739798 6.54767715,1 12.1574572,1 C17.7671908,1 22.3147519,5.54742119 22.3147519,11.1569714 C22.3147519,16.7664983 17.7671444,21.3140124 12.1574108,21.3140124 C6.54763071,21.3140356 2,16.7664983 2,11.1569714 Z M17.558471,9.61517794 C16.7069685,9.61517794 16.0167304,10.3054109 16.0167304,11.1569482 C16.0167304,12.0085783 16.7069685,12.6988112 17.558471,12.6988112 C18.4100199,12.6988112 19.1003508,12.0085783 19.1003508,11.1569482 C19.1003972,10.3054341 18.4100199,9.61517794 17.558471,9.61517794 Z M12.0402816,9.75041077 C11.1886165,9.75041077 10.4983553,10.4406901 10.4983553,11.2923203 C10.4983553,12.1437879 11.1886165,12.8339976 12.0402816,12.8339976 C12.8917841,12.8339976 13.5821149,12.1437879 13.5821149,11.2923203 C13.5821149,10.4407134 12.8918305,9.75041077 12.0402816,9.75041077 Z M6.41373894,9.75041077 C5.56223643,9.75041077 4.871952,10.4406901 4.871952,11.2923203 C4.871952,12.1437879 5.56223646,12.8339976 6.41373894,12.8339976 C7.26526465,12.8339976 7.9556652,12.1437879 7.9556652,11.2923203 C7.95564197,10.4407134 7.26526465,9.75041077 6.41373894,9.75041077 Z" id="Shape"></path>
                </g>
            </g>
        </g>
    </g>
</svg>