<?xml version="1.0" encoding="UTF-8"?>
<svg width="24px" height="24px" viewBox="0 0 24 24" version="1.1" xmlns="http://www.w3.org/2000/svg" xmlns:xlink="http://www.w3.org/1999/xlink">
    <!-- Generator: Sketch 50.2 (55047) - http://www.bohemiancoding.com/sketch -->
    <title>Group Copy</title>
    <desc>Created with Sketch.</desc>
    <defs></defs>
    <g id="app" stroke="none" stroke-width="1" fill="none" fill-rule="evenodd">
        <g id="我的" transform="translate(-14.000000, -214.000000)">
            <g id="Group-Copy" transform="translate(0.000000, 204.000000)">
                <g id="Group-3" transform="translate(14.000000, 10.000000)">
                    <circle id="Oval-2" fill="#F55F23" cx="12" cy="12" r="10"></circle>
                    <path d="M11.844,8 C12.624,8 13.248,8.204 13.728,8.636 C14.196,9.056 14.436,9.632 14.436,10.352 C14.436,10.94 14.28,11.432 13.992,11.816 C13.884,11.948 13.548,12.26 12.972,12.752 C12.756,12.944 12.588,13.148 12.48,13.364 C12.348,13.604 12.288,13.868 12.288,14.168 L12.288,14.372 L11.004,14.372 L11.004,14.168 C11.004,13.724 11.076,13.34 11.232,13.028 C11.4,12.692 11.856,12.2 12.6,11.54 L12.804,11.312 C13.02,11.036 13.128,10.748 13.128,10.436 C13.128,10.016 13.008,9.692 12.78,9.452 C12.54,9.212 12.204,9.092 11.772,9.092 C11.232,9.092 10.836,9.26 10.596,9.596 C10.38,9.884 10.272,10.304 10.272,10.832 L9,10.832 C9,9.956 9.252,9.272 9.768,8.768 C10.272,8.252 10.968,8 11.844,8 Z M11.64,15.02 C11.892,15.02 12.108,15.092 12.276,15.26 C12.444,15.416 12.528,15.62 12.528,15.872 C12.528,16.124 12.444,16.328 12.276,16.496 C12.096,16.652 11.88,16.736 11.64,16.736 C11.388,16.736 11.184,16.652 11.028,16.484 C10.848,16.316 10.764,16.112 10.764,15.872 C10.764,15.62 10.848,15.416 11.028,15.26 C11.184,15.092 11.388,15.02 11.64,15.02 Z" id="?" fill="#FFFFFF"></path>
                </g>
            </g>
        </g>
    </g>
</svg>