<?xml version="1.0" encoding="UTF-8"?>
<svg width="24px" height="24px" viewBox="0 0 24 24" version="1.1" xmlns="http://www.w3.org/2000/svg" xmlns:xlink="http://www.w3.org/1999/xlink">
    <!-- Generator: Sketch 50.2 (55047) - http://www.bohemiancoding.com/sketch -->
    <title>退出 (1)</title>
    <desc>Created with Sketch.</desc>
    <defs></defs>
    <g id="app" stroke="none" stroke-width="1" fill="none" fill-rule="evenodd">
        <g id="我的" transform="translate(-14.000000, -302.000000)" fill="#1E96FF" fill-rule="nonzero">
            <g id="Group-Copy-3" transform="translate(0.000000, 292.000000)">
                <g id="退出-(1)" transform="translate(14.000000, 10.000000)">
                    <path d="M18.2594163,4.18649382 C18.9521496,4.6791056 19.5679857,5.23723045 20.106727,5.86058269 C20.6455781,6.48411074 21.1073783,7.15754829 21.4921935,7.88104916 C21.8771185,8.60457201 22.1695649,9.3704663 22.3697303,10.1786441 C22.5698518,10.9868219 22.6698686,11.8065156 22.6698686,12.637813 C22.6698686,14.0695189 22.39663,15.41257 21.8501749,16.6672521 C21.3036758,17.9218243 20.5647252,19.0148005 19.6334109,19.9460927 C18.7020967,20.8775169 17.6091205,21.6163576 16.3544604,22.1628567 C15.0999102,22.7093338 13.7567272,22.9826603 12.3251752,22.9826603 C10.9089191,22.9826603 9.57342803,22.7093338 8.31885583,22.1628567 C7.06417375,21.6163576 5.96735159,20.8775168 5.02838937,19.9460927 C4.08931727,19.0148004 3.35041061,17.9218242 2.81162542,16.6672521 C2.27279627,15.41257 2.00344761,14.0694969 2.00344761,12.637813 C2.00344761,11.8219653 2.09961844,11.0214355 2.29209196,10.2363773 C2.48456548,9.45131923 2.7577381,8.70469866 3.11178564,7.99649369 C3.46592108,7.28844256 3.90462356,6.62649894 4.42802494,6.01079465 C4.95140434,5.39495852 5.53634099,4.84076752 6.18296674,4.34817772 C6.52167442,4.10183886 6.88721586,4.00949202 7.27978889,4.07102728 C7.67225202,4.13271639 7.99168598,4.32505804 8.2380468,4.64831598 C8.48440763,4.97170577 8.57673249,5.3333793 8.51519723,5.73364422 C8.45350812,6.13388716 8.26116647,6.45712311 7.93793051,6.7035279 C6.96804683,7.41157903 6.22527223,8.28133605 5.70954078,9.312755 C5.19396317,10.3441739 4.9361304,11.452512 4.9361304,12.637835 C4.9361304,13.6538042 5.12847205,14.612216 5.51341909,15.5127186 C5.89823427,16.4132433 6.42543766,17.1982794 7.09502923,17.867915 C7.76481861,18.5376604 8.54985475,19.0687098 9.4503794,19.4612828 C10.350926,19.8537459 11.30914,20.0500654 12.325263,20.0500654 C13.3412322,20.0500654 14.2994681,19.8537459 15.2000148,19.4612828 C16.1005614,19.0687098 16.8857074,18.5376604 17.555321,17.867915 C18.2249785,17.1982794 18.7560059,16.4132433 19.1485789,15.5127186 C19.5411739,14.612172 19.7373615,13.6538042 19.7373615,12.637835 C19.7373615,11.4371721 19.4603649,10.3018025 18.9061959,9.23190207 C18.351895,8.16204555 17.5744849,7.28079464 16.5739874,6.58806139 C16.2352797,6.3571503 16.0313342,6.04154034 15.9620631,5.64129737 C15.892748,5.24103246 15.973557,4.87155714 16.2044681,4.53282749 C16.4353792,4.20959153 16.7509672,4.01327205 17.1512321,3.94406686 C17.5514531,3.87486164 17.9207306,3.95558273 18.2594163,4.18649382 Z M12.3251532,12.707194 C11.9248663,12.707194 11.5823346,12.5647838 11.2975363,12.2799635 C11.0127379,11.9951871 10.8703277,11.6526334 10.8703277,11.2523685 L10.8703277,2.47779136 C10.8703277,2.07752645 11.0127159,1.7311708 11.2975362,1.43870249 C11.5823346,1.14621218 11.9248663,1 12.3251532,1 C12.740714,1 13.0909376,1.14621218 13.375736,1.43870249 C13.6605343,1.73117082 13.8029226,2.07752645 13.8029226,2.47779136 L13.8029226,11.2523685 C13.8029226,11.6526114 13.6605343,11.9951651 13.375736,12.2799635 C13.0909376,12.5647838 12.740714,12.707194 12.3251532,12.707194 Z" id="Shape"></path>
                </g>
            </g>
        </g>
    </g>
</svg>