<?xml version="1.0" standalone="no"?><!DOCTYPE svg PUBLIC "-//W3C//DTD SVG 1.1//EN" "http://www.w3.org/Graphics/SVG/1.1/DTD/svg11.dtd"><svg t="1530068270498" class="icon" style="" viewBox="0 0 1024 1024" version="1.1" xmlns="http://www.w3.org/2000/svg" p-id="554" xmlns:xlink="http://www.w3.org/1999/xlink" width="48" height="48"><defs><style type="text/css"></style></defs><path d="M204.992 863.008l-11.008 0q-52.992-4.992-92.992-55.008t-59.008-132.512-11.008-179.488q12-150.016 74.496-246.016t143.488-88.992q55.008 4.992 106.016 76 8 11.008 5.504 24t-12.512 20.992q-7.008 4.992-15.488 6.016t-16.512-2.496-12.992-10.496q-18.016-24.992-32-36.992t-27.008-12.992q-47.008-4-92.992 75.488t-56 201.504q-4.992 60.992 2.016 116.512t22.496 93.504 36.512 61.504 44 25.504q26.016 2.016 51.488-17.504t46.016-58.496 34.496-91.008q3.008-11.008 11.488-17.504t19.488-6.496l300 0q4.992 0 10.016 1.504t8.992 4.992 7.008 7.488 4.992 10.016q22.016 80 58.496 125.504t76.512 40.512q22.016-2.016 42.016-24t34.016-60q35.008-91.008 22.016-215.008-6.016-60-22.496-113.504t-41.504-92.512q-22.016-35.008-46.016-52.512t-46.016-15.488q-28.992 3.008-60 48.992-8.992 14.016-26.016 14.016l-236.992 0q-12.992 0-22.496-9.504t-9.504-22.496 9.504-22.496 22.496-9.504l220 0q44.992-56.992 96.992-62.016 80-8.992 145.504 87.008t80.512 244q14.016 139.008-26.016 244-20.992 56-54.496 88.512t-75.488 36.512q-60.992 6.016-113.504-44.512t-82.496-145.504l-252 0q-27.008 90.016-75.488 140.512t-106.496 50.496zM320 448l-32 0 0-32q0-12.992-9.504-22.496t-22.496-9.504-22.496 9.504-9.504 22.496l0 32-32 0q-12.992 0-22.496 9.504t-9.504 22.496 9.504 22.496 22.496 9.504l32 0 0 32q0 12.992 9.504 22.496t22.496 9.504 22.496-9.504 9.504-22.496l0-32 32 0q12.992 0 22.496-9.504t9.504-22.496-9.504-22.496-22.496-9.504zM736 384q0-26.016 19.008-44.992t44.992-19.008 44.992 19.008 19.008 44.992-19.008 44.992-44.992 19.008-44.992-19.008-19.008-44.992zM608 512q0-26.016 19.008-44.992t44.992-19.008 44.992 19.008 19.008 44.992-19.008 44.992-44.992 19.008-44.992-19.008-19.008-44.992z" p-id="555" fill="#ffffff" data-spm-anchor-id="a313x.7781069.0.i4" class=""></path></svg>