<?xml version="1.0" encoding="UTF-8"?>
<svg width="48px" height="48px" viewBox="0 0 48 48" version="1.1" xmlns="http://www.w3.org/2000/svg" xmlns:xlink="http://www.w3.org/1999/xlink">
    <!-- Generator: Sketch 49.3 (51167) - http://www.bohemiancoding.com/sketch -->
    <title>ic_help_outline_black_24px</title>
    <desc>Created with Sketch.</desc>
    <defs></defs>
    <g id="ic_help_outline_black_24px" stroke="none" stroke-width="1" fill="none" fill-rule="evenodd">
        <g id="Shape">
            <polygon points="0 0 48 0 48 48 0 48"></polygon>
            <path d="M24,4 C12.96,4 4,12.96 4,24 C4,35.04 12.96,44 24,44 C35.04,44 44,35.04 44,24 C44,12.96 35.04,4 24,4 Z M24,40 C15.18,40 8,32.82 8,24 C8,15.18 15.18,8 24,8 C32.82,8 40,15.18 40,24 C40,32.82 32.82,40 24,40 Z" fill="#FFFFFF" fill-rule="nonzero"></path>
            <path d="M24.3329841,22.5712726 C21.2954158,21.7817725 20.3185767,20.9655097 20.3185767,19.6942807 C20.3185767,18.2357127 21.6700939,17.2187295 23.9315433,17.2187295 C26.313425,17.2187295 27.1965946,18.3561449 27.2768828,20.0288147 L30.2341628,20.0288147 C30.1404933,17.7272211 28.7354508,15.6129666 25.938747,14.9305174 L25.938747,12 L21.9243397,12 L21.9243397,14.8903733 C19.3283563,15.4523903 17.2408644,17.1384414 17.2408644,19.7210434 C17.2408644,22.8121371 19.7967038,24.3509932 23.5301026,25.2475442 C26.875442,26.0504257 27.5445099,27.2279852 27.5445099,28.4724514 C27.5445099,29.3957651 26.8888234,30.8677145 23.9315433,30.8677145 C21.1749836,30.8677145 20.0910936,29.6366296 19.9438987,28.0576293 L17,28.0576293 C17.1605763,30.9881467 19.355119,32.6340537 21.9243397,33.1826894 L21.9243397,36.086444 L25.938747,36.086444 L25.938747,33.2094521 C28.5481118,32.7143418 30.6222222,31.2022484 30.6222222,28.4590701 C30.6222222,24.6587645 27.3705523,23.3607728 24.3329841,22.5712726 Z" fill="#FFFFFF" fill-rule="nonzero"></path>
        </g>
    </g>
</svg>