<?xml version="1.0" encoding="UTF-8"?>
<svg width="48px" height="48px" viewBox="0 0 48 48" version="1.1" xmlns="http://www.w3.org/2000/svg" xmlns:xlink="http://www.w3.org/1999/xlink">
    <!-- Generator: Sketch 49.3 (51167) - http://www.bohemiancoding.com/sketch -->
    <title>ic_library_books_black_24px</title>
    <desc>Created with Sketch.</desc>
    <defs></defs>
    <g id="ic_library_books_black_24px" stroke="none" stroke-width="1" fill="none" fill-rule="evenodd">
        <g id="Shape">
            <polygon points="0 0 48 0 48 48 0 48"></polygon>
            <path d="M8,12 L4,12 L4,40 C4,42.2 5.8,44 8,44 L36,44 L36,40 L8,40 L8,12 Z M40,4 L16,4 C13.8,4 12,5.8 12,8 L12,32 C12,34.2 13.8,36 16,36 L40,36 C42.2,36 44,34.2 44,32 L44,8 C44,5.8 42.2,4 40,4 Z M38,22 L18,22 L18,18 L38,18 L38,22 Z M30,30 L18,30 L18,26 L30,26 L30,30 Z M38,14 L18,14 L18,10 L38,10 L38,14 Z" fill="#FFFFFF" fill-rule="nonzero"></path>
        </g>
    </g>
</svg>