<?xml version="1.0" encoding="UTF-8"?>
<svg width="32px" height="32px" viewBox="0 0 32 32" version="1.1" xmlns="http://www.w3.org/2000/svg" xmlns:xlink="http://www.w3.org/1999/xlink">
    <!-- Generator: Sketch 50.2 (55047) - http://www.bohemiancoding.com/sketch -->
    <title>ic_library_books_black_24px</title>
    <desc>Created with Sketch.</desc>
    <defs></defs>
    <g id="app" stroke="none" stroke-width="1" fill="none" fill-rule="evenodd">
        <g id="首页" transform="translate(-43.000000, -246.000000)" fill="#FFB21A" fill-rule="nonzero">
            <g id="Group-7" transform="translate(16.000000, 230.000000)">
                <g id="ic_library_books_black_24px" transform="translate(27.000000, 16.000000)">
                    <path d="M5.33333333,8 L2.66666667,8 L2.66666667,26.6666667 C2.66666667,28.1333333 3.86666667,29.3333333 5.33333333,29.3333333 L24,29.3333333 L24,26.6666667 L5.33333333,26.6666667 L5.33333333,8 Z M26.6666667,2.66666667 L10.6666667,2.66666667 C9.2,2.66666667 8,3.86666667 8,5.33333333 L8,21.3333333 C8,22.8 9.2,24 10.6666667,24 L26.6666667,24 C28.1333333,24 29.3333333,22.8 29.3333333,21.3333333 L29.3333333,5.33333333 C29.3333333,3.86666667 28.1333333,2.66666667 26.6666667,2.66666667 Z M25.3333333,14.6666667 L12,14.6666667 L12,12 L25.3333333,12 L25.3333333,14.6666667 Z M20,20 L12,20 L12,17.3333333 L20,17.3333333 L20,20 Z M25.3333333,9.33333333 L12,9.33333333 L12,6.66666667 L25.3333333,6.66666667 L25.3333333,9.33333333 Z" id="Shape"></path>
                </g>
            </g>
        </g>
    </g>
</svg>