<?xml version="1.0" encoding="UTF-8"?>
<svg width="32px" height="32px" viewBox="0 0 32 32" version="1.1" xmlns="http://www.w3.org/2000/svg" xmlns:xlink="http://www.w3.org/1999/xlink">
    <!-- Generator: Sketch 50.2 (55047) - http://www.bohemiancoding.com/sketch -->
    <title>ic_movie_black_24px</title>
    <desc>Created with Sketch.</desc>
    <defs></defs>
    <g id="app" stroke="none" stroke-width="1" fill="none" fill-rule="evenodd">
        <g id="首页" transform="translate(-129.000000, -246.000000)" fill="#FF5A29" fill-rule="nonzero">
            <g id="Group-8" transform="translate(102.000000, 230.000000)">
                <g id="ic_movie_black_24px" transform="translate(27.000000, 16.000000)">
                    <path d="M24,5.33333333 L26.6666667,10.6666667 L22.6666667,10.6666667 L20,5.33333333 L17.3333333,5.33333333 L20,10.6666667 L16,10.6666667 L13.3333333,5.33333333 L10.6666667,5.33333333 L13.3333333,10.6666667 L9.33333333,10.6666667 L6.66666667,5.33333333 L5.33333333,5.33333333 C3.86666667,5.33333333 2.68,6.53333333 2.68,8 L2.66666667,24 C2.66666667,25.4666667 3.86666667,26.6666667 5.33333333,26.6666667 L26.6666667,26.6666667 C28.1333333,26.6666667 29.3333333,25.4666667 29.3333333,24 L29.3333333,5.33333333 L24,5.33333333 Z" id="Shape"></path>
                </g>
            </g>
        </g>
    </g>
</svg>