<?xml version="1.0" encoding="UTF-8"?>
<svg width="48px" height="48px" viewBox="0 0 48 48" version="1.1" xmlns="http://www.w3.org/2000/svg" xmlns:xlink="http://www.w3.org/1999/xlink">
    <!-- Generator: Sketch 49.3 (51167) - http://www.bohemiancoding.com/sketch -->
    <title>ic_movie_black_24px</title>
    <desc>Created with Sketch.</desc>
    <defs></defs>
    <g id="ic_movie_black_24px" stroke="none" stroke-width="1" fill="none" fill-rule="evenodd">
        <g id="Shape">
            <polygon points="0 0 48 0 48 48 0 48"></polygon>
            <path d="M36,8 L40,16 L34,16 L30,8 L26,8 L30,16 L24,16 L20,8 L16,8 L20,16 L14,16 L10,8 L8,8 C5.8,8 4.02,9.8 4.02,12 L4,36 C4,38.2 5.8,40 8,40 L40,40 C42.2,40 44,38.2 44,36 L44,8 L36,8 Z" fill="#FFFFFF" fill-rule="nonzero"></path>
        </g>
    </g>
</svg>