<?xml version="1.0" encoding="UTF-8"?>
<svg width="32px" height="32px" viewBox="0 0 32 32" version="1.1" xmlns="http://www.w3.org/2000/svg" xmlns:xlink="http://www.w3.org/1999/xlink">
    <!-- Generator: Sketch 50.2 (55047) - http://www.bohemiancoding.com/sketch -->
    <title>ic_videogame_asset_black_24px</title>
    <desc>Created with Sketch.</desc>
    <defs></defs>
    <g id="app" stroke="none" stroke-width="1" fill="none" fill-rule="evenodd">
        <g id="首页" transform="translate(-215.000000, -246.000000)" fill="#7ED321" fill-rule="nonzero">
            <g id="Group-6" transform="translate(188.000000, 230.000000)">
                <g id="ic_videogame_asset_black_24px" transform="translate(27.000000, 16.000000)">
                    <path d="M28,8 L4,8 C2.53333333,8 1.33333333,9.2 1.33333333,10.6666667 L1.33333333,21.3333333 C1.33333333,22.8 2.53333333,24 4,24 L28,24 C29.4666667,24 30.6666667,22.8 30.6666667,21.3333333 L30.6666667,10.6666667 C30.6666667,9.2 29.4666667,8 28,8 Z M14.6666667,17.3333333 L10.6666667,17.3333333 L10.6666667,21.3333333 L8,21.3333333 L8,17.3333333 L4,17.3333333 L4,14.6666667 L8,14.6666667 L8,10.6666667 L10.6666667,10.6666667 L10.6666667,14.6666667 L14.6666667,14.6666667 L14.6666667,17.3333333 Z M20.6666667,20 C19.56,20 18.6666667,19.1066667 18.6666667,18 C18.6666667,16.8933333 19.56,16 20.6666667,16 C21.7733333,16 22.6666667,16.8933333 22.6666667,18 C22.6666667,19.1066667 21.7733333,20 20.6666667,20 Z M26,16 C24.8933333,16 24,15.1066667 24,14 C24,12.8933333 24.8933333,12 26,12 C27.1066667,12 28,12.8933333 28,14 C28,15.1066667 27.1066667,16 26,16 Z" id="Shape"></path>
                </g>
            </g>
        </g>
    </g>
</svg>