<?xml version="1.0" encoding="UTF-8"?>
<svg width="48px" height="48px" viewBox="0 0 48 48" version="1.1" xmlns="http://www.w3.org/2000/svg" xmlns:xlink="http://www.w3.org/1999/xlink">
    <!-- Generator: Sketch 49.3 (51167) - http://www.bohemiancoding.com/sketch -->
    <title>ic_videogame_asset_black_24px</title>
    <desc>Created with Sketch.</desc>
    <defs></defs>
    <g id="ic_videogame_asset_black_24px" stroke="none" stroke-width="1" fill="none" fill-rule="evenodd">
        <g id="Shape">
            <path d="M0,0 L0,48 L48,48 L48,0 L0,0 Z M46,32 C46,34.2 44.2,36 42,36 L6,36 C3.8,36 2,34.2 2,32 L2,16 C2,13.8 3.8,12 6,12 L42,12 C44.2,12 46,13.8 46,16 L46,32 Z"></path>
            <path d="M42,12 L6,12 C3.8,12 2,13.8 2,16 L2,32 C2,34.2 3.8,36 6,36 L42,36 C44.2,36 46,34.2 46,32 L46,16 C46,13.8 44.2,12 42,12 Z M22,26 L16,26 L16,32 L12,32 L12,26 L6,26 L6,22 L12,22 L12,16 L16,16 L16,22 L22,22 L22,26 Z M31,30 C29.34,30 28,28.66 28,27 C28,25.34 29.34,24 31,24 C32.66,24 34,25.34 34,27 C34,28.66 32.66,30 31,30 Z M39,24 C37.34,24 36,22.66 36,21 C36,19.34 37.34,18 39,18 C40.66,18 42,19.34 42,21 C42,22.66 40.66,24 39,24 Z" fill="#FFFFFF" fill-rule="nonzero"></path>
        </g>
    </g>
</svg>