<?xml version="1.0" encoding="UTF-8"?>
<svg width="24px" height="24px" viewBox="0 0 24 24" version="1.1" xmlns="http://www.w3.org/2000/svg" xmlns:xlink="http://www.w3.org/1999/xlink">
    <!-- Generator: Sketch 50.2 (55047) - http://www.bohemiancoding.com/sketch -->
    <title>苹果</title>
    <desc>Created with Sketch.</desc>
    <defs></defs>
    <g id="h5" stroke="none" stroke-width="1" fill="none" fill-rule="evenodd" fill-opacity="0.7">
        <g id="APP下载" transform="translate(-113.000000, -433.000000)" fill="#FFFFFF" fill-rule="nonzero">
            <g id="Group-Copy" transform="translate(68.000000, 423.000000)">
                <g id="苹果" transform="translate(45.000000, 10.000000)">
                    <path d="M19.625336,15.7919057 C20.2852024,16.7253752 21.0416346,17.3289116 21.8946326,17.6025147 C21.5244637,18.7452102 20.9370216,19.9361886 20.1323065,21.1754499 C18.8930452,23.042389 17.6698782,23.9758585 16.4628055,23.9758585 C16.012165,23.9758585 15.3442515,23.8229627 14.4590648,23.5171709 C13.6382554,23.2113792 12.9220589,23.0584833 12.3104754,23.0584833 C11.6988919,23.0584833 11.0229312,23.2194263 10.2825933,23.5413124 C9.5100668,23.8471041 8.87434185,24 8.37541847,24 C6.92693124,24 5.50258546,22.7687859 4.10238114,20.3063576 C2.70217682,17.8761179 2.00207466,15.4861139 2.00207466,13.1363458 C2.00207466,10.9636149 2.53318664,9.1851945 3.59541061,7.80108448 C4.68982318,6.41697446 6.0417446,5.72491945 7.65117485,5.72491945 C8.00524951,5.72491945 8.39955992,5.76917878 8.83410609,5.85769745 C9.26865226,5.94621611 9.71929273,6.11118271 10.1860275,6.35259725 C10.6849509,6.62620039 11.0953556,6.81530845 11.4172417,6.91992141 C11.7391277,7.02453438 11.9885894,7.07684086 12.1656267,7.07684086 C12.3748527,7.07684086 12.6967387,7.02855796 13.1312849,6.93199214 C13.565831,6.83542633 14.0003772,6.658389 14.4349234,6.40088016 C14.9016582,6.14337132 15.3040157,5.95023969 15.6419961,5.82148527 C15.9799764,5.69273084 16.3260039,5.62835363 16.6800786,5.62835363 C17.8066798,5.62835363 18.8206208,5.93414538 19.7219018,6.54572888 C20.2047308,6.86761493 20.6956071,7.34239686 21.1945305,7.97007466 C20.4541925,8.61384676 19.9150334,9.17714735 19.577053,9.65997642 C18.9493752,10.5612574 18.6355363,11.5430098 18.6355363,12.6052338 C18.6355363,13.7801179 18.9654695,14.8423418 19.625336,15.7919057 Z M14.7729037,4.51784676 C14.2096031,5.04895874 13.6945855,5.39498625 13.2278507,5.55592927 C13.0669077,5.60421218 12.8617053,5.64847151 12.6122436,5.68870727 C12.3627819,5.72894303 12.0771081,5.76515521 11.755222,5.79734381 C11.7713163,4.38104519 12.1414853,3.15787819 12.8657289,2.12784283 C13.5899725,1.09780747 14.7809509,0.389658153 16.438664,0.00339489194 C16.4708527,0.164337917 16.4949941,0.276998035 16.5110884,0.341375246 L16.5110884,0.606931238 C16.5110884,1.18632613 16.3742868,1.83814538 16.1006837,2.562389 C15.8109862,3.27053831 15.3683929,3.92235756 14.7729037,4.51784676 Z" id="Shape"></path>
                </g>
            </g>
        </g>
    </g>
</svg>