<?xml version="1.0" encoding="UTF-8"?>
<svg width="17px" height="16px" viewBox="0 0 17 16" version="1.1" xmlns="http://www.w3.org/2000/svg" xmlns:xlink="http://www.w3.org/1999/xlink">
    <!-- Generator: Sketch 50.2 (55047) - http://www.bohemiancoding.com/sketch -->
    <title>人数</title>
    <desc>Created with Sketch.</desc>
    <defs>
        <linearGradient x1="50%" y1="0%" x2="50%" y2="100%" id="linearGradient-1">
            <stop stop-color="#0781FF" offset="0%"></stop>
            <stop stop-color="#51ACFC" offset="100%"></stop>
        </linearGradient>
    </defs>
    <g id="app" stroke="none" stroke-width="1" fill="none" fill-rule="evenodd">
        <g id="首页" transform="translate(-201.000000, -140.000000)">
            <rect id="Rectangle" fill="url(#linearGradient-1)" x="0" y="0" width="375" height="250"></rect>
            <g id="Group" opacity="0.600000024" transform="translate(81.000000, 137.000000)" fill="#FFFFFF" fill-rule="nonzero">
                <g id="人数" transform="translate(120.000000, 3.000000)">
                    <path d="M7.97027933,6.11441341 C8.84469274,6.11441341 9.55486034,5.41832402 9.55486034,4.56268156 C9.55486034,3.70703911 8.84312849,3.01094972 7.97027933,3.01094972 C7.09586592,3.01094972 6.38569832,3.70703911 6.38569832,4.56268156 C6.38569832,5.41832402 7.09743017,6.11441341 7.97027933,6.11441341 Z M12.0357542,6.11441341 C12.9101676,6.11441341 13.6203352,5.41832402 13.6203352,4.56268156 C13.6203352,3.70703911 12.9086034,3.01094972 12.0357542,3.01094972 C11.1613408,3.01094972 10.4511732,3.70703911 10.4511732,4.56268156 C10.4496089,5.41832402 11.1613408,6.11441341 12.0357542,6.11441341 Z M3.96111732,6.11441341 C4.83553073,6.11441341 5.54569832,5.41832402 5.54569832,4.56268156 C5.54569832,3.70703911 4.83553073,3.01094972 3.96111732,3.01094972 C3.08670391,3.01094972 2.37653631,3.70703911 2.37653631,4.56268156 C2.37497207,5.41832402 3.08670391,6.11441341 3.96111732,6.11441341 Z M10.9204469,11.8160894 L10.9204469,13.3693855 L4.96849162,13.3693855 L4.96849162,11.8160894 L4.97005587,11.8160894 C4.98256983,9.57452514 6.30905028,6.17385475 7.94368715,6.17385475 C9.57988827,6.17385475 10.9063687,9.57452514 10.9204469,11.8160894 Z M5.89765363,7.10458101 L5.82100559,7.2172067 C5.31575419,7.95553073 4.49296089,10.6444693 4.49296089,11.8160894 C4.49296089,11.8943017 4.48670391,11.9740782 4.4898324,12.0522905 L4.4898324,13.3709497 L1.01094972,13.3709497 L1.01094972,11.8176536 L1.01251397,11.8176536 C1.02502793,9.57608939 2.35150838,6.17541899 3.9877095,6.17541899 C4.65251397,6.17541899 5.27977654,6.46324022 5.80379888,7.00759777 L5.89765363,7.10458101 Z M14.9843575,11.8160894 L14.9843575,13.3693855 L11.5039106,13.3693855 L11.5039106,11.858324 C11.5039106,11.8442458 11.5023464,11.8301676 11.5023464,11.8160894 C11.5023464,10.6444693 10.6779888,7.95553073 10.1743017,7.2172067 L10.0976536,7.10458101 L10.1915084,7.00603352 C10.7155307,6.46167598 11.3443575,6.17385475 12.009162,6.17385475 C13.6437989,6.17385475 14.9702793,9.57452514 14.9843575,11.8160894 Z" id="Shape"></path>
                </g>
            </g>
        </g>
    </g>
</svg>