<?xml version="1.0" encoding="UTF-8"?>
<svg width="16px" height="16px" viewBox="0 0 16 16" version="1.1" xmlns="http://www.w3.org/2000/svg" xmlns:xlink="http://www.w3.org/1999/xlink">
    <!-- Generator: Sketch 51.2 (57519) - http://www.bohemiancoding.com/sketch -->
    <title>mdpi/refresh</title>
    <desc>Created with Sketch.</desc>
    <defs></defs>
    <g id="app" stroke="none" stroke-width="1" fill="none" fill-rule="evenodd" fill-opacity="0.38">
        <g id="出错" transform="translate(-248.000000, -309.000000)" fill="#000000" fill-rule="nonzero">
            <path d="M263.249999,314.74999 L260.000018,314.74999 C259.585403,314.74999 259.250038,314.414055 259.250038,313.999974 C259.250038,313.585927 259.585422,313.249994 260.000018,313.249994 L261.304677,313.249994 C260.127802,311.58704 258.192545,310.50001 256.000021,310.50001 C252.410165,310.50001 249.500022,313.410173 249.500022,316.999971 C249.500022,320.589808 252.410184,323.499952 256.000021,323.499952 C259.589858,323.499952 262.500001,320.589789 262.500001,316.999971 C262.500001,316.585925 262.835369,316.249991 263.249964,316.249991 C263.664045,316.249991 264,316.585927 264,316.999971 C264,321.418219 260.417932,324.999962 256.00001,324.999962 C251.58203,324.999962 248,321.418238 248,316.999971 C248,312.581743 251.58203,309 256.00001,309 C258.681337,309 261.049635,310.321971 262.49999,312.347378 L262.49999,311.000001 C262.49999,310.58592 262.835357,310.250002 263.249953,310.250002 C263.664034,310.250002 263.999989,310.58592 263.999989,311.000001 L263.999989,313.999983 C264.000033,314.414057 263.664041,314.74999 263.249999,314.74999 Z" id="refresh"></path>
        </g>
    </g>
</svg>