<?xml version="1.0" encoding="UTF-8"?>
<svg width="40px" height="40px" viewBox="0 0 40 40" version="1.1" xmlns="http://www.w3.org/2000/svg" xmlns:xlink="http://www.w3.org/1999/xlink">
    <!-- Generator: Sketch 49.3 (51167) - http://www.bohemiancoding.com/sketch -->
    <title>icon/Wechat</title>
    <desc>Created with Sketch.</desc>
    <defs></defs>
    <g id="icon/Wechat" stroke="none" stroke-width="1" fill="none" fill-rule="evenodd">
        <path d="M15.0928871,24.146428 C14.9304707,24.228564 14.7474482,24.2761773 14.5529069,24.2761773 C14.1029021,24.2761773 13.7118997,24.0278441 13.5060954,23.6605421 L13.427511,23.4879281 L10.1506415,16.277283 C10.1153169,16.1989971 10.093431,16.1101875 10.093431,16.0239447 C10.093431,15.6915505 10.3619493,15.42217 10.6933094,15.42217 C10.8279525,15.42217 10.9521006,15.4670881 11.052187,15.5417805 L14.9192078,18.3024495 C15.2018046,18.4877689 15.5393082,18.5964708 15.9022814,18.5964708 C16.1187086,18.5964708 16.3254088,18.5557878 16.5176463,18.4858439 L34.7031645,10.3699058 C31.4435734,6.51746931 26.0748728,4 19.999808,4 C10.0584904,4 2,10.7339994 2,19.0412888 C2,23.5732725 4.42459924,27.6528665 8.21943493,30.4104553 C8.52378972,30.6283725 8.72306659,30.9864342 8.72306659,31.3904408 C8.72306659,31.5239119 8.69465331,31.6462175 8.65971267,31.7737851 C8.35676575,32.9075189 7.87169232,34.7231102 7.8489105,34.8079413 C7.81115413,34.950396 7.75215179,35.0987542 7.75215179,35.2476258 C7.75215179,35.58002 8.02067002,35.8492722 8.35254216,35.8492722 C8.48244968,35.8492722 8.58906345,35.8007606 8.69887691,35.7371052 L12.6394906,33.4559053 C12.9359102,33.2845747 13.249736,33.1781828 13.5954308,33.1781828 C13.7793492,33.1781828 13.9571241,33.2066738 14.1242761,33.2580088 C15.9628196,33.7881712 17.9461172,34.0827059 19.999808,34.0827059 C29.9406137,34.0827059 38,27.3480648 38,19.0412888 C38,16.5252312 37.2567753,14.1556067 35.9496368,12.0711483 L15.2242025,24.0701955 L15.0928871,24.146428 Z" id="Fill-14" fill="#00C800"></path>
    </g>
</svg>